<?xml version="1.0" standalone="no"?>
<!DOCTYPE svg PUBLIC "-//W3C//DTD SVG 20010904//EN"
 "http://www.w3.org/TR/2001/REC-SVG-20010904/DTD/svg10.dtd">
<svg version="1.0" xmlns="http://www.w3.org/2000/svg"
 width="1080.000000pt" height="1080.000000pt" viewBox="0 0 1080.000000 1080.000000"
 preserveAspectRatio="xMidYMid meet">

<g transform="translate(0.000000,1080.000000) scale(0.100000,-0.100000)"
fill="#000000" stroke="none">
<path d="M2810 6675 l0 -45 690 0 690 0 0 45 0 45 -690 0 -690 0 0 -45z"/>
<path d="M6580 6675 l0 -45 685 0 685 0 0 45 0 45 -685 0 -685 0 0 -45z"/>
<path d="M5490 6175 c0 -3 16 -40 35 -81 65 -141 165 -270 264 -342 30 -22 38
-32 26 -32 -41 0 -112 47 -213 142 -59 55 -125 113 -147 128 -47 33 -123 60
-167 60 -30 0 -30 -1 18 -26 73 -39 278 -214 251 -214 -13 0 -70 31 -129 72
-32 21 -58 36 -58 33 0 -3 16 -23 36 -45 73 -81 -16 -32 -136 74 -111 99 -225
148 -339 145 -30 0 -24 -4 34 -18 100 -25 136 -47 261 -159 170 -151 239 -193
385 -232 73 -19 73 -19 29 -19 -119 -2 -244 56 -440 203 -184 139 -250 171
-345 171 -86 -1 -141 -24 -231 -97 -35 -28 -62 -53 -61 -55 2 -2 24 5 48 16
24 11 78 22 119 26 l75 7 -70 -43 c-104 -64 -196 -162 -244 -261 -40 -81 -71
-181 -71 -223 1 -11 11 5 24 37 54 128 194 300 287 352 l34 18 -39 -33 c-100
-85 -208 -257 -241 -384 -20 -77 -31 -226 -18 -249 8 -14 11 -3 16 46 14 151
99 326 204 418 43 37 141 100 158 100 3 0 -19 -28 -50 -62 -78 -86 -161 -265
-180 -386 -4 -26 4 -13 29 46 70 167 188 312 307 377 66 36 72 27 9 -14 -69
-44 -124 -112 -169 -206 -37 -75 -69 -181 -59 -191 3 -2 11 15 18 38 49 164
186 320 310 352 16 4 11 -1 -14 -15 -61 -33 -134 -113 -166 -181 -37 -77 -40
-113 -4 -43 31 61 74 108 133 146 63 41 68 36 15 -13 -41 -38 -74 -84 -74
-104 0 -5 15 6 33 23 17 18 58 44 89 58 64 29 136 33 268 16 105 -14 196 -13
335 4 66 8 164 15 218 17 l99 3 -6 38 c-7 44 -37 107 -73 156 -40 52 3 24 64
-42 46 -51 73 -108 73 -155 0 -13 9 -22 28 -27 29 -7 116 -55 110 -60 -2 -2
-44 3 -93 12 -60 10 -119 13 -179 10 -94 -6 -106 -2 -35 12 l44 9 -44 1 c-103
2 -240 -62 -351 -167 -51 -48 -53 -52 -25 -45 17 5 77 8 135 8 83 -1 120 -6
177 -25 40 -13 71 -25 69 -27 -2 -2 -32 3 -67 12 -65 15 -166 18 -206 7 -21
-7 -21 -8 12 -62 19 -30 37 -67 41 -82 l6 -28 -188 0 c-160 0 -199 3 -252 20
-95 30 -214 28 -278 -5 -58 -29 -66 -30 -127 -9 -43 15 -49 15 -72 0 -79 -52
-35 -224 62 -242 36 -7 39 -14 22 -47 -12 -22 -12 -22 10 -3 25 22 51 103 51
158 0 63 24 46 47 -34 45 -150 160 -198 264 -111 38 32 79 115 79 161 l0 32
189 0 c104 0 196 3 204 6 32 12 32 -130 1 -210 -5 -13 -4 -17 4 -12 6 4 17 25
24 48 l12 41 8 -29 c10 -36 -6 -127 -29 -167 -40 -68 -123 -92 -216 -63 -59
18 -50 -1 16 -33 23 -12 35 -21 27 -21 -29 1 -97 38 -118 65 -30 38 -28 10 3
-49 39 -74 30 -119 -29 -140 -16 -5 -13 -10 20 -33 40 -27 63 -53 77 -88 6
-14 -2 -10 -29 15 l-37 35 28 -43 c19 -28 29 -60 32 -95 3 -38 2 -48 -6 -37
-6 8 -11 24 -11 36 0 32 -54 107 -91 128 l-34 19 25 -28 25 -29 -25 17 c-44
30 -111 57 -143 57 l-30 0 24 -26 c25 -27 33 -92 16 -144 -5 -17 -1 -14 12 10
11 19 20 44 21 54 0 11 3 17 6 13 3 -3 3 -24 -1 -47 -8 -46 -51 -102 -96 -125
l-27 -15 30 59 c29 57 30 61 18 110 -7 28 -19 61 -29 72 -15 19 -16 18 -16
-27 0 -56 -26 -80 -95 -89 l-45 -6 53 25 c28 14 52 27 52 30 0 2 -23 9 -51 15
-28 6 -64 20 -79 31 -41 29 -94 26 -119 -6 -19 -24 -21 -25 -21 -7 0 11 7 26
15 33 13 11 12 16 -10 42 -35 41 -33 82 5 120 26 26 36 30 66 25 19 -3 49 -18
66 -32 72 -61 150 -84 219 -64 l44 13 -35 7 c-28 5 -30 7 -10 8 35 2 101 34
124 59 10 12 21 43 23 69 l5 48 -23 -35 c-31 -45 -82 -70 -139 -69 l-45 0 48
13 c57 16 90 40 40 30 -37 -7 -89 8 -139 42 l-37 26 17 -26 c9 -14 12 -26 8
-26 -18 0 -62 53 -62 75 0 30 -37 75 -61 75 -19 0 -19 -1 -5 -16 23 -23 20
-37 -6 -27 -13 4 -37 7 -55 7 -18 0 -29 4 -26 9 3 5 -5 3 -18 -3 -19 -11 -24
-10 -36 5 -11 16 -12 13 -11 -28 1 -25 6 -43 10 -41 4 3 8 -1 8 -9 0 -26 -34
-58 -70 -66 l-35 -8 25 -11 25 -11 -23 0 c-13 -1 -32 4 -43 10 -20 10 -20 9
-5 -19 11 -21 31 -36 62 -48 l46 -18 -6 -74 c-9 -97 -40 -178 -86 -224 -55
-55 -7 -45 53 10 l27 26 -11 -34 c-17 -48 -46 -88 -83 -112 l-31 -20 48 5 c45
4 47 3 41 -17 -15 -45 -7 -144 15 -189 24 -49 109 -135 160 -161 l32 -17 -24
38 c-41 65 -61 132 -61 202 0 36 4 74 10 83 6 12 9 -3 9 -50 1 -80 26 -143 78
-193 37 -36 133 -89 161 -89 43 0 70 149 42 230 -21 60 -13 62 15 3 25 -50 33
-153 16 -201 -8 -21 -7 -22 20 -10 53 23 140 87 180 132 49 56 101 152 125
231 l18 60 -5 -62 c-2 -34 -11 -81 -19 -104 -8 -24 -13 -45 -11 -47 2 -2 42
34 88 79 116 116 165 223 168 369 2 93 16 31 18 -80 l2 -85 21 40 c27 50 48
136 48 198 0 26 -12 105 -26 175 -36 172 -39 343 -6 417 l22 50 -32 -35 c-18
-19 -29 -27 -25 -17 4 10 7 23 7 27 0 16 62 81 93 96 38 20 111 20 142 0 69
-46 75 -120 20 -252 -64 -153 -77 -197 -81 -274 l-5 -75 24 61 c13 34 33 77
44 95 11 19 50 83 87 143 83 136 103 199 87 271 -6 28 -24 69 -38 91 l-27 39
24 -16 c36 -23 69 -77 77 -122 l6 -40 18 22 c53 65 74 210 44 295 -12 35 -12
48 2 105 9 38 16 109 16 166 0 119 -23 191 -79 249 -69 71 -159 103 -379 136
-212 32 -304 58 -359 101 -14 11 -26 18 -26 14z"/>
<path d="M3521 5328 c14 -26 1846 -3203 1863 -3230 6 -10 14 -18 17 -18 6 0
1877 3234 1887 3261 2 5 -171 9 -397 9 l-401 0 0 -105 0 -105 219 -2 219 -3
-341 -591 c-272 -471 -345 -590 -357 -583 -8 4 -26 10 -40 13 -23 5 -28 16
-54 118 -34 133 -46 159 -79 177 -43 23 -86 -6 -92 -64 -1 -11 -3 -25 -4 -32
-5 -49 -163 -164 -367 -266 -39 -20 -85 -48 -103 -63 -32 -27 -81 -110 -81
-139 0 -8 -15 -24 -32 -35 l-33 -20 36 0 c32 0 38 4 43 28 4 15 19 51 34 80
25 50 32 57 116 99 262 132 416 257 416 340 0 38 18 50 49 34 57 -31 32 -80
-112 -217 -97 -93 -100 -103 -12 -44 70 47 71 43 6 -20 -69 -67 -60 -67 34 2
106 78 106 72 0 -41 -54 -58 -46 -59 25 -2 46 35 41 25 -19 -41 -39 -44 -17
-33 55 28 36 31 68 54 70 51 3 -3 -32 -44 -78 -92 -92 -98 -75 -99 29 -2 36
34 61 53 55 42 -21 -40 -93 -130 -153 -192 -34 -35 -56 -63 -50 -63 13 0 218
202 254 250 l25 35 -9 -42 c-21 -98 -79 -224 -179 -388 -20 -33 -49 -82 -64
-110 -93 -168 -510 -885 -515 -885 -4 0 -155 257 -336 572 -182 314 -524 907
-761 1317 l-431 746 173 3 174 2 0 105 0 105 -355 0 -356 0 12 -22z"/>
<path d="M5673 3825 c-84 -26 -147 -72 -189 -140 l-19 -30 38 28 c38 29 157
87 178 87 6 0 -23 -23 -65 -51 -42 -28 -76 -52 -76 -54 0 -2 17 2 38 9 20 8
62 16 92 20 l55 6 -90 -33 c-49 -19 -113 -46 -142 -60 -40 -20 -66 -27 -110
-26 -61 0 -198 31 -187 42 4 3 -4 8 -17 11 -85 20 -117 26 -141 26 -27 0 -28
-1 -27 -57 0 -32 10 -96 22 -143 l22 -85 42 2 c56 2 109 31 182 99 50 46 69
57 104 61 39 5 50 0 118 -45 110 -75 238 -137 258 -125 9 5 27 41 40 79 28 84
31 212 6 322 l-17 72 -36 -1 c-20 0 -56 -6 -79 -14z"/>
</g>
</svg>
