<?xml version="1.0" standalone="no"?>
<!DOCTYPE svg PUBLIC "-//W3C//DTD SVG 20010904//EN"
 "http://www.w3.org/TR/2001/REC-SVG-20010904/DTD/svg10.dtd">
<svg version="1.0" xmlns="http://www.w3.org/2000/svg"
 width="461.000000pt" height="541.000000pt" viewBox="0 0 461.000000 541.000000"
 preserveAspectRatio="xMidYMid meet">
<metadata>
Created by potrace 1.16, written by Peter Selinger 2001-2019
</metadata>
<g transform="translate(0.000000,541.000000) scale(0.100000,-0.100000)"
fill="#000000" stroke="none">
<path d="M854 4471 c19 -7 19 -8 1 -15 -12 -4 -15 -10 -9 -14 15 -10 37 -52
27 -52 -5 0 -15 9 -23 21 -34 48 -48 60 -56 48 -4 -6 0 -16 10 -21 9 -5 16
-14 16 -19 0 -6 -4 -7 -10 -4 -18 11 -11 -11 9 -29 10 -10 21 -27 25 -39 5
-22 5 -22 -11 -2 -15 20 -15 20 -8 -2 10 -37 -12 -27 -26 11 -9 26 -15 31 -25
22 -6 -6 -12 -13 -12 -16 1 -18 -3 -24 -10 -14 -10 15 -62 27 -62 14 0 -6 -11
-3 -25 6 -17 11 -25 12 -25 5 0 -7 -4 -10 -10 -6 -5 3 -17 1 -27 -4 -10 -6
-36 -13 -58 -17 -33 -5 -37 -8 -20 -14 28 -12 37 -12 30 0 -3 6 3 10 14 10
l21 0 -20 -20 c-11 -11 -25 -20 -32 -20 -9 0 -9 -3 0 -12 17 -17 15 -31 -3
-24 -13 5 -20 -9 -17 -35 1 -3 -12 -6 -28 -5 -17 1 -30 4 -30 9 0 4 -12 7 -26
7 l-27 0 26 -20 c14 -11 32 -20 41 -20 25 0 19 -20 -6 -21 -18 -1 -15 -3 10
-10 28 -8 31 -13 22 -24 -7 -8 -27 -20 -45 -27 -19 -6 -32 -15 -29 -20 3 -4 0
-8 -6 -8 -6 0 -9 -4 -6 -8 8 -13 -33 -7 -46 6 -15 15 -38 16 -38 2 0 -5 7 -10
16 -10 14 0 14 -3 4 -15 -7 -8 -9 -15 -4 -15 14 -1 56 -38 58 -52 1 -7 5 -18
9 -25 4 -6 2 -15 -4 -19 -8 -4 -9 -3 -5 4 4 7 2 12 -4 12 -6 0 -8 -10 -4 -24
4 -16 1 -25 -10 -29 -14 -5 -14 -10 -1 -39 8 -18 19 -32 25 -30 7 2 9 -5 5
-19 -5 -14 -4 -19 4 -15 7 5 9 1 5 -8 -3 -9 -11 -16 -17 -16 -6 0 -7 3 -4 7 4
3 -9 14 -30 23 -28 12 -37 22 -37 42 -1 15 3 24 10 21 6 -2 11 3 11 11 0 8 -6
12 -15 9 -11 -5 -13 0 -8 18 7 23 6 23 -8 5 -19 -23 -20 -65 -3 -86 7 -8 24
-21 40 -29 28 -15 34 -26 17 -36 -19 -12 -11 -45 11 -45 17 0 20 -5 16 -21 -7
-28 10 -44 48 -45 36 -2 95 -13 107 -20 4 -3 8 -12 8 -20 0 -17 17 -19 22 -3
3 9 10 9 26 0 30 -16 28 -7 -5 24 -15 14 -22 25 -16 25 7 0 15 -4 18 -10 3 -5
13 -10 22 -10 11 0 14 8 11 30 -4 24 -1 30 14 30 10 0 21 -7 24 -15 4 -8 13
-15 21 -15 8 0 11 -5 8 -11 -4 -6 2 -13 14 -16 11 -3 19 -9 16 -13 -3 -5 9
-11 26 -15 24 -5 28 -9 18 -16 -10 -7 -5 -9 16 -7 35 3 46 36 21 61 -9 9 -16
21 -16 27 0 6 -4 8 -10 5 -5 -3 -10 -2 -10 2 0 5 -12 8 -27 7 -45 -2 -63 7
-69 32 -3 13 -13 24 -22 24 -12 0 -13 3 -4 12 7 7 8 17 3 27 -12 21 -11 32 1
55 7 13 7 16 -1 12 -6 -4 -11 -3 -11 3 0 5 5 11 11 13 6 2 13 25 16 51 3 26 8
47 12 47 3 0 7 30 7 66 1 66 9 84 37 88 24 3 67 39 67 56 0 14 11 18 57 22 6
1 9 7 6 15 -3 7 0 14 6 14 11 1 24 4 39 9 24 7 58 3 67 -8 6 -7 20 -14 33 -15
12 0 22 -5 22 -10 0 -5 -7 -7 -15 -3 -8 3 -15 2 -15 -2 0 -13 69 -30 74 -18 2
6 5 4 5 -5 1 -11 8 -15 24 -12 12 2 49 -8 82 -21 65 -27 72 -38 74 -114 1 -49
-35 -115 -49 -91 -5 7 -6 19 -3 28 3 9 -11 -2 -31 -24 -19 -22 -35 -44 -36
-48 0 -5 -6 -2 -14 6 -9 9 -13 26 -10 46 4 23 1 31 -10 31 -9 0 -16 -5 -16
-10 0 -6 -8 -22 -17 -37 -17 -25 -49 -107 -60 -150 -4 -20 -1 -23 21 -23 16 0
26 6 26 15 0 10 9 14 30 11 17 -2 30 0 30 4 0 4 6 7 14 7 12 0 12 -8 -1 -51
-8 -28 -25 -67 -36 -86 l-22 -35 -3 28 c-2 15 -8 27 -13 27 -5 0 -9 7 -9 15 0
8 -3 15 -7 16 -5 0 -16 2 -27 4 -11 2 -37 -13 -66 -41 -26 -25 -53 -43 -60
-42 -7 2 -15 -4 -17 -12 -4 -12 -3 -12 5 -2 8 11 10 11 15 0 3 -8 -4 -20 -14
-26 -10 -7 -19 -23 -19 -36 0 -24 16 -36 51 -36 10 0 28 -9 39 -20 16 -16 18
-25 10 -40 -10 -20 -11 -19 -48 3 -20 13 -42 26 -47 30 -6 3 -17 1 -25 -4 -12
-8 -11 -12 10 -28 14 -11 21 -23 17 -27 -4 -4 -16 1 -27 11 -11 10 -20 13 -20
8 0 -16 28 -36 42 -31 7 2 23 -6 35 -19 12 -13 19 -23 16 -23 -4 0 2 -7 13
-15 18 -14 17 -15 -8 -4 -14 6 -29 20 -31 30 -8 31 -24 22 -29 -15 -4 -32 -2
-34 24 -30 15 1 28 -1 28 -6 0 -6 -4 -10 -10 -10 -5 0 -10 -8 -10 -17 -1 -16
-2 -16 -13 -3 -18 23 -36 22 -34 -1 1 -20 6 -21 61 -15 32 3 77 15 100 26 23
11 51 20 62 20 14 -1 12 -4 -11 -16 -16 -8 -21 -12 -10 -9 l20 5 -20 -16 c-19
-16 -19 -16 5 -9 14 4 34 15 45 25 11 10 27 20 35 24 8 3 2 4 -14 0 l-29 -5
31 36 c43 48 41 59 -2 12 -36 -40 -57 -44 -115 -23 -57 20 -59 35 -17 110 20
36 39 66 42 66 3 0 0 -9 -6 -19 -15 -29 5 -36 25 -9 8 13 18 40 22 61 4 30 10
37 28 37 13 0 37 -13 54 -29 35 -33 39 -62 17 -116 -20 -47 -11 -44 14 5 27
53 26 65 -16 121 -46 63 -37 79 45 79 50 0 61 4 88 30 41 40 75 114 79 170 l3
45 -8 -40 c-10 -53 -42 -123 -73 -158 -26 -29 -64 -36 -127 -22 -29 6 -32 10
-28 34 3 14 15 46 27 71 11 25 18 37 16 28 -7 -24 1 -22 15 3 8 15 8 19 0 15
-17 -11 -14 -2 18 56 41 73 51 78 101 44 23 -15 43 -26 45 -24 2 2 -17 18 -42
34 -44 29 -47 33 -48 80 -1 27 -5 57 -10 68 -7 17 -6 17 16 7 l24 -12 -22 20
c-13 10 -23 23 -23 29 0 5 -7 24 -17 42 -12 26 -14 39 -6 61 12 31 3 39 -48
39 -22 0 -49 17 -107 66 -86 74 -164 114 -220 113 -27 0 -32 -2 -18 -8z"/>
<path d="M2550 4106 c-19 -6 -46 -17 -59 -25 -18 -10 -21 -10 -16 0 16 25 -69
2 -180 -48 -60 -28 -182 -74 -270 -103 -129 -42 -167 -50 -200 -45 -22 3 -58
7 -80 8 -22 1 -45 8 -51 16 -10 13 -34 8 -34 -7 0 -11 60 -40 110 -53 25 -6
58 -20 74 -32 17 -12 42 -20 58 -19 32 3 38 -17 8 -25 -11 -3 -20 -10 -20 -17
0 -6 -20 -20 -45 -31 -42 -18 -59 -35 -35 -35 6 0 10 -4 10 -10 0 -5 -11 -10
-25 -10 -20 0 -25 -5 -25 -23 0 -35 -12 -41 -32 -15 -19 23 -19 23 -12 -24 8
-61 -18 -141 -62 -191 -19 -20 -34 -40 -34 -45 0 -7 -22 -17 -104 -47 -49 -18
-88 -17 -218 1 -38 5 -48 4 -48 -8 0 -17 -30 -59 -92 -127 -60 -66 -96 -142
-114 -244 -16 -96 -19 -244 -4 -283 21 -54 4 -57 -57 -10 -31 25 -60 43 -65
40 -4 -3 -8 0 -8 5 0 6 -7 11 -16 11 -8 0 -13 4 -10 9 3 4 -6 19 -19 31 l-25
23 0 -26 c0 -14 -3 -28 -8 -31 -4 -2 -6 14 -3 37 2 28 -1 44 -11 51 -8 6 -18
20 -22 32 -7 21 -80 53 -93 41 -3 -4 2 -7 13 -7 10 -1 33 -12 49 -26 18 -15
23 -22 11 -18 -14 5 -17 4 -12 -5 12 -19 -20 -94 -54 -126 -16 -15 -40 -29
-54 -30 -14 -2 -31 -7 -38 -11 -20 -13 -41 -11 -60 5 -24 19 -23 31 2 31 29 0
76 26 94 52 21 30 20 48 -2 23 -29 -34 -74 -65 -94 -65 -11 0 -16 5 -13 11 4
5 -1 19 -10 29 -16 18 -16 20 3 45 20 25 20 56 -1 83 -11 14 -51 17 -42 2 3
-5 0 -7 -8 -5 -7 3 -27 -12 -48 -37 -18 -24 -32 -43 -29 -43 3 -1 -3 -14 -14
-29 -14 -23 -17 -39 -12 -79 8 -56 84 -209 100 -200 5 3 6 1 3 -5 -8 -11 55
-138 81 -164 23 -22 136 -93 128 -79 -5 7 -1 9 8 5 9 -3 14 -9 12 -13 -2 -3 2
-15 10 -26 8 -10 14 -15 14 -11 0 4 14 -4 31 -18 17 -14 34 -26 39 -26 4 0 11
-7 14 -16 4 -12 2 -15 -9 -10 -22 8 -18 -2 6 -15 17 -8 20 -8 14 1 -5 8 -3 11
6 8 8 -3 16 -13 17 -23 3 -12 0 -15 -9 -10 -7 5 -10 4 -5 -3 4 -6 12 -9 19 -6
7 2 13 -3 13 -13 1 -10 5 -27 9 -37 7 -16 5 -18 -10 -13 -13 6 -15 4 -8 -5 6
-7 13 -33 17 -58 4 -24 12 -51 19 -59 9 -12 9 -13 0 -7 -7 4 -13 2 -13 -3 0
-6 5 -11 10 -11 6 0 9 -3 8 -7 -4 -15 13 -53 23 -53 6 0 7 -4 4 -10 -3 -5 3
-11 14 -11 12 -1 26 -2 32 -3 14 -1 39 -36 39 -55 0 -8 24 -39 53 -69 31 -31
44 -50 32 -46 -14 4 -8 -5 17 -30 56 -55 87 -63 142 -35 66 32 118 86 149 151
40 83 103 271 124 365 18 84 24 92 91 119 1 1 -7 36 -18 78 -17 60 -19 84 -11
107 7 20 7 29 0 29 -6 0 -4 7 5 15 19 19 46 19 46 0 0 -9 6 -12 15 -9 8 4 15
14 15 24 0 11 13 24 30 32 17 7 30 16 30 20 0 5 8 8 18 8 13 0 14 -2 4 -9 -13
-8 -1 -15 48 -27 43 -10 70 28 29 41 l-21 7 21 15 c12 8 21 21 21 29 0 8 5 14
10 14 6 0 10 5 10 11 0 14 97 160 135 204 65 75 87 97 147 139 34 25 68 51 75
56 7 6 16 9 20 8 4 0 22 4 38 11 29 13 122 27 97 15 -17 -8 -5 -24 13 -18 8 4
12 10 9 15 -3 5 7 9 23 10 81 3 170 -17 183 -41 14 -27 -9 -31 -42 -9 -14 11
-33 16 -42 13 -9 -3 -16 -2 -16 4 0 14 -82 23 -98 10 -12 -11 -25 -12 -113
-16 -27 -1 -38 -6 -33 -14 4 -6 3 -8 -4 -4 -6 3 -14 0 -19 -7 -4 -7 -16 -16
-26 -20 -10 -4 -17 -15 -15 -24 3 -19 -19 -25 -38 -11 -7 5 -14 2 -18 -7 -3
-9 -11 -13 -17 -9 -8 5 -9 3 -5 -5 5 -7 15 -10 23 -7 8 4 11 1 8 -5 -4 -6 -14
-8 -22 -4 -19 7 -55 -23 -46 -38 4 -6 0 -8 -10 -4 -23 9 -21 -2 6 -32 19 -22
19 -23 1 -8 -23 19 -39 23 -28 5 4 -7 3 -8 -5 -4 -6 4 -8 12 -5 18 5 7 2 8 -5
3 -7 -4 -10 -16 -8 -27 4 -14 1 -18 -8 -14 -11 4 -12 0 -4 -22 10 -26 10 -26
-10 -7 -25 21 -28 9 -5 -23 8 -12 13 -22 10 -22 -3 0 2 -8 12 -18 16 -18 38
-20 27 -2 -3 4 4 6 15 3 10 -3 19 -8 18 -12 0 -3 1 -8 2 -11 6 -16 7 -41 2
-35 -4 4 -8 11 -8 16 -1 5 -2 12 -3 16 0 3 -10 -2 -20 -11 -11 -10 -17 -25
-14 -34 4 -15 3 -15 -6 -2 -6 8 -11 11 -11 7 0 -4 -9 -3 -21 3 -16 9 -26 8
-43 -3 -20 -14 -34 -53 -14 -41 5 3 6 11 2 17 -3 7 1 4 10 -7 8 -10 26 -18 40
-18 16 0 23 -5 19 -12 -4 -6 1 -5 10 3 9 7 14 17 11 22 -3 5 -1 9 4 9 6 0 13
-7 16 -16 3 -8 2 -12 -3 -9 -5 3 -12 1 -16 -4 -3 -6 3 -15 13 -20 21 -11 47 8
54 39 3 14 23 40 30 40 2 0 4 -9 5 -20 1 -11 -2 -18 -7 -15 -5 3 -14 -3 -19
-14 -6 -11 -8 -21 -3 -24 4 -2 1 -2 -5 -1 -7 2 -18 -6 -24 -18 -7 -12 -7 -18
-1 -14 6 3 12 3 15 -1 2 -5 2 -2 1 5 -3 10 15 17 38 13 4 0 3 11 -2 24 -9 24
-8 25 10 15 12 -6 18 -16 14 -23 -4 -7 7 2 23 18 29 30 36 48 10 27 -8 -7 -17
-9 -21 -5 -4 4 -4 -1 0 -11 5 -13 4 -17 -3 -13 -6 4 -13 16 -16 28 -4 15 -2
19 9 15 12 -4 14 -1 9 14 -5 15 -2 18 15 15 11 -2 26 -7 33 -10 6 -4 -6 8 -27
27 -22 18 -42 33 -45 33 -3 1 -16 6 -28 13 -24 13 -29 7 -13 -18 8 -12 10 -12
10 -1 0 10 3 11 13 2 8 -6 18 -7 22 -3 5 4 5 1 0 -7 -6 -10 -4 -12 6 -6 11 6
11 5 2 -5 -6 -7 -9 -20 -5 -29 5 -13 3 -14 -9 -4 -12 10 -18 10 -29 0 -8 -7
-10 -8 -7 -1 4 6 0 26 -9 43 -12 25 -13 35 -4 46 6 8 8 20 4 27 -4 7 6 -2 23
-19 37 -39 86 -45 103 -13 6 11 8 25 5 30 -3 5 15 15 41 22 25 7 45 17 44 22
-1 5 4 13 12 18 8 5 4 7 -14 4 -36 -6 -35 -1 4 18 37 19 38 19 38 5 0 -5 -5
-7 -12 -3 -7 4 -8 3 -4 -5 10 -16 26 -4 26 20 0 18 1 19 25 3 23 -15 30 -13
26 9 0 4 2 7 7 8 4 0 15 2 25 4 22 4 22 -2 -1 -23 -9 -10 -13 -14 -8 -9 14 10
28 9 22 -2 -3 -4 5 -7 17 -7 12 1 28 -2 35 -7 7 -6 15 -7 19 -3 3 3 1 6 -6 6
-7 0 -9 5 -5 12 5 7 3 8 -5 4 -8 -5 -14 0 -18 14 -4 16 -8 18 -14 8 -7 -10 -9
-9 -9 5 0 9 5 17 11 17 7 0 18 -8 26 -17 8 -10 12 -13 9 -6 -4 6 -2 14 4 18 5
3 10 1 10 -4 0 -6 8 -11 18 -11 13 0 14 -2 3 -9 -19 -12 0 -19 29 -10 14 4 19
7 12 8 -14 1 -42 25 -42 37 0 3 7 1 15 -6 12 -10 18 -10 33 1 15 12 16 12 4
-2 -11 -14 -9 -16 14 -16 14 0 30 -7 35 -14 7 -9 8 -5 3 12 -3 15 -1 30 5 33
7 5 8 1 4 -10 -5 -13 -3 -16 9 -11 9 3 19 0 22 -8 3 -8 0 -15 -6 -17 -5 -2 -2
-10 8 -18 14 -12 16 -12 9 -1 -5 10 -4 12 4 7 6 -4 9 -11 6 -16 -3 -5 3 -15
15 -22 11 -7 20 -18 20 -25 0 -6 4 -15 10 -18 5 -3 7 0 4 9 -4 10 0 14 15 13
12 -1 21 -7 21 -15 0 -7 5 -10 10 -7 6 3 10 -1 10 -9 0 -9 6 -16 14 -16 22 0
45 -37 62 -100 8 -30 19 -64 24 -75 5 -11 21 -54 36 -95 27 -75 93 -195 141
-258 13 -18 62 -92 108 -164 79 -125 82 -131 65 -148 -10 -10 -34 -23 -54 -30
-21 -7 -33 -16 -30 -22 4 -6 2 -8 -3 -5 -6 4 -27 -4 -47 -18 l-36 -24 15 23
c12 18 13 26 4 32 -7 4 -9 3 -5 -4 4 -7 -6 -9 -29 -8 -19 2 -37 -2 -40 -8 -2
-6 -2 -1 1 12 4 15 0 24 -11 28 -13 5 -15 14 -10 40 5 29 3 34 -18 39 -19 5
-23 11 -19 31 3 18 0 24 -13 24 -9 0 -15 6 -13 12 3 7 -6 24 -18 37 -13 14
-19 28 -14 31 5 3 7 23 3 45 -5 32 -8 35 -14 20 -7 -19 -8 -19 -8 2 -1 12 -8
26 -17 31 -15 8 -14 10 2 16 16 6 16 8 -6 19 -14 7 -29 22 -34 33 -5 11 -22
26 -37 33 -16 7 -30 23 -34 39 -4 15 -12 30 -18 34 -8 5 -7 11 2 22 11 13 11
16 0 16 -10 1 -8 4 4 11 9 5 17 17 17 25 0 8 -4 12 -10 9 -16 -10 -12 21 4 35
8 6 13 19 10 28 -2 9 1 7 7 -5 7 -13 16 -23 21 -23 6 0 18 -10 29 -22 10 -13
18 -17 19 -10 0 6 -5 12 -11 12 -5 0 -7 5 -4 10 5 8 12 7 22 -2 12 -10 17 -9
24 5 12 21 12 32 0 32 -6 0 -19 10 -30 21 -19 21 -19 22 -2 27 14 3 17 0 14
-13 -3 -10 1 -17 11 -17 8 0 12 5 8 11 -4 6 -7 19 -8 29 -3 33 -4 37 -14 37
-5 0 -7 -6 -4 -14 3 -8 0 -17 -7 -22 -8 -5 -10 -3 -4 6 5 8 -1 20 -16 32 l-24
19 25 -5 c14 -3 19 -3 12 0 -6 3 -9 11 -6 16 4 7 2 8 -4 4 -6 -4 -10 1 -9 13
1 16 4 18 22 9 18 -10 19 -9 7 5 -8 9 -11 20 -8 25 3 5 -1 18 -9 28 -13 16
-14 17 -9 2 6 -17 -10 -26 -19 -10 -2 4 -2 1 -1 -5 2 -7 -1 -13 -6 -13 -6 0
-10 8 -10 18 0 11 -3 13 -8 6 -11 -19 -57 -22 -57 -4 0 8 8 16 19 18 11 3 16
0 12 -7 -4 -6 -2 -11 3 -11 20 0 11 20 -14 32 -14 6 -25 19 -25 30 0 10 -4 18
-10 18 -5 0 -7 -7 -3 -16 5 -14 3 -15 -17 -4 -20 11 -22 10 -17 -4 5 -13 0
-16 -25 -16 -29 0 -30 -1 -15 -18 11 -12 13 -22 6 -35 -6 -9 -13 -15 -17 -13
-4 3 -8 -4 -8 -14 0 -10 4 -16 8 -14 4 3 8 1 8 -5 0 -5 -6 -11 -12 -14 -7 -3
-3 -4 9 -4 18 1 20 4 12 19 -7 13 -6 24 3 36 16 21 43 28 35 9 -3 -7 1 -14 8
-14 7 0 11 6 8 14 -3 7 0 13 6 13 6 0 11 -9 11 -19 0 -11 5 -23 12 -27 7 -4 8
-3 4 4 -4 7 -2 12 3 12 6 0 11 -8 11 -17 0 -10 9 -29 20 -43 11 -14 20 -29 19
-35 0 -5 -4 -2 -10 8 -6 9 -14 15 -20 12 -5 -3 -6 2 -2 11 5 14 0 12 -25 -6
-31 -23 -32 -23 -52 -5 -18 16 -23 17 -30 5 -7 -11 -4 -19 8 -28 16 -13 16
-14 -3 -10 -12 2 -20 11 -20 23 -1 11 -6 19 -13 18 -7 -2 -12 6 -12 16 0 10
-7 22 -16 25 -9 4 -14 13 -10 21 4 13 2 13 -14 5 -12 -6 -20 -7 -20 -1 0 5 -3
17 -7 27 -5 14 -3 16 12 11 15 -6 16 -5 5 8 -10 12 -15 13 -21 4 -4 -7 -16 -9
-28 -6 -12 3 -21 2 -21 -2 0 -4 -17 -6 -37 -4 -21 2 -49 1 -62 -3 -20 -4 -22
-7 -10 -15 10 -7 4 -8 -19 -5 -19 2 -31 2 -28 -1 3 -4 1 -12 -5 -20 -9 -9 -8
-13 0 -13 6 0 11 4 11 10 0 5 7 7 16 3 10 -4 14 -14 11 -29 -2 -14 0 -21 6
-17 7 4 8 -1 3 -13 -4 -10 6 -4 21 14 74 88 218 21 275 -128 26 -65 21 -74 -6
-15 -13 28 -34 59 -47 70 -13 12 -19 14 -14 5 5 -8 -15 6 -43 33 -38 35 -59
47 -82 47 -34 0 -79 -37 -81 -67 -3 -54 -10 -88 -19 -97 -7 -7 -10 2 -11 25 0
18 -3 27 -6 19 -31 -89 -120 -332 -145 -394 -17 -45 -26 -81 -21 -85 10 -6 27
-42 25 -52 0 -3 14 -4 31 -1 21 2 28 0 19 -6 -9 -6 4 -17 43 -37 41 -20 53
-31 43 -37 -8 -6 -1 -7 21 -3 23 5 31 4 27 -4 -4 -6 -14 -11 -22 -11 -8 0 -14
-4 -14 -9 0 -4 8 -8 18 -8 34 0 43 -3 37 -13 -4 -6 -11 -8 -16 -5 -5 4 -9 1
-9 -4 0 -6 6 -11 13 -11 8 0 9 -3 1 -8 -6 -4 -14 -20 -18 -37 -4 -16 -17 -64
-30 -105 -38 -120 -39 -133 -16 -158 l21 -22 -23 -9 c-47 -18 -72 -68 -41 -81
9 -4 7 -11 -5 -28 l-18 -23 -37 26 c-50 33 -57 32 -23 -4 26 -27 28 -34 22
-81 -4 -27 -9 -58 -12 -68 -5 -15 -4 -15 6 -2 9 13 10 12 6 -5 -3 -11 -1 -27
4 -35 7 -11 11 -8 20 15 12 32 6 60 -11 49 -8 -5 -9 -3 -5 5 6 9 13 8 27 -5
18 -17 19 -16 20 22 1 21 4 30 6 20 4 -15 7 -16 15 -5 7 10 8 9 4 -7 -5 -17 2
-24 44 -44 42 -20 49 -27 44 -44 -6 -20 -5 -20 19 3 15 14 42 25 64 27 33 3
35 2 18 -8 -11 -6 -24 -16 -28 -22 -6 -7 -7 -4 -3 6 3 10 1 18 -4 18 -15 0
-90 -94 -90 -113 0 -10 -4 -15 -10 -12 -5 3 -10 17 -10 30 0 34 -27 58 -57 50
-16 -4 -22 -2 -18 5 10 17 51 11 70 -10 14 -16 20 -17 27 -8 13 21 10 27 -21
43 -16 8 -36 22 -45 30 -15 15 -17 14 -27 -12 -6 -15 -12 -37 -13 -48 -1 -11
-8 -33 -15 -49 -6 -17 -11 -48 -9 -70 3 -35 8 -43 35 -56 18 -8 33 -18 33 -22
0 -10 -43 4 -65 21 -20 16 -20 16 -1 -6 11 -13 25 -23 32 -23 7 0 16 -5 20
-11 4 -8 0 -9 -15 -4 -12 4 -21 2 -21 -4 0 -6 -7 -8 -15 -5 -8 4 -15 2 -15 -4
0 -6 -3 -19 -6 -29 -5 -16 -4 -16 11 2 16 20 16 19 10 -6 -4 -17 -1 -30 9 -38
13 -11 17 -6 26 30 l12 42 17 -29 c10 -16 25 -35 34 -43 17 -14 24 -47 8 -37
-5 3 -15 -2 -22 -12 -13 -15 -12 -16 4 -3 10 8 17 9 17 3 0 -23 -23 -23 -48
-1 -15 13 -48 35 -74 48 -27 13 -48 30 -48 37 0 8 6 11 15 8 9 -4 19 5 28 28
12 28 12 38 0 66 -9 23 -10 31 -2 27 8 -5 9 1 5 23 -4 18 -1 43 7 64 13 32 13
36 -8 62 l-22 27 0 -31 c0 -17 3 -26 7 -20 14 23 17 -25 3 -57 -8 -21 -18 -31
-27 -27 -9 3 -17 -3 -21 -15 -3 -12 -11 -18 -17 -15 -6 4 -8 -1 -3 -16 5 -14
3 -20 -3 -16 -6 3 -8 -2 -5 -13 5 -21 -14 -64 -26 -57 -4 3 -18 -16 -30 -41
-16 -34 -18 -43 -7 -34 9 8 16 20 16 27 0 24 30 16 31 -8 1 -21 2 -21 13 5 7
15 16 24 21 20 4 -5 5 1 1 11 -8 24 23 111 36 98 5 -5 5 -19 -1 -33 -6 -13
-15 -43 -21 -67 -6 -23 -15 -40 -20 -37 -13 8 -12 -6 0 -25 8 -13 10 -12 10 3
0 23 13 22 35 -3 15 -17 16 -24 7 -46 -7 -14 -9 -35 -6 -48 6 -25 -27 -91 -40
-79 -4 4 -4 0 -1 -9 4 -11 -1 -20 -14 -27 -11 -6 -18 -17 -15 -24 2 -7 -3 -21
-12 -32 -8 -11 -12 -14 -8 -6 5 10 3 12 -5 7 -9 -6 -9 -11 -1 -21 11 -13 -3
-58 -27 -82 -6 -7 -17 -29 -23 -48 -6 -19 -16 -33 -21 -29 -6 3 -7 -6 -4 -23
5 -23 4 -25 -5 -13 -10 12 -11 11 -7 -8 6 -27 -11 -84 -23 -77 -4 2 -13 -23
-19 -58 -14 -69 -50 -167 -63 -167 -17 0 -20 32 -8 78 15 53 84 175 94 165 3
-3 7 2 7 13 3 42 7 81 13 109 5 25 5 27 -4 10 -11 -22 -12 -26 6 58 9 40 -20
36 -37 -5 -12 -32 -26 -48 -41 -48 -12 0 -9 48 2 55 15 9 3 24 -19 22 -10 0
-25 -14 -34 -29 -9 -16 -12 -26 -6 -22 8 4 9 -1 4 -16 -5 -16 -4 -20 5 -15 15
9 65 -38 80 -76 10 -24 10 -33 -4 -53 -15 -24 -17 -25 -52 -10 -43 18 -45 16
-71 -63 -13 -43 -19 -50 -30 -41 -17 14 -9 58 19 108 19 35 19 31 -9 -48 -8
-24 -13 -46 -9 -49 3 -3 8 0 10 8 29 93 40 111 63 106 17 -3 29 3 43 23 25 36
25 42 -4 69 -16 15 -26 19 -31 12 -3 -6 -10 -9 -15 -6 -5 3 -12 0 -16 -6 -4
-8 -3 -9 4 -5 16 10 14 -5 -3 -28 -14 -19 -21 -11 -16 17 1 5 -3 6 -8 2 -6 -3
-7 -13 -4 -22 4 -11 2 -14 -5 -9 -7 4 -10 0 -7 -13 2 -10 -14 -52 -35 -92 -31
-60 -36 -77 -29 -99 8 -20 4 -39 -16 -83 l-25 -57 24 0 c13 0 27 7 30 16 6 15
8 15 26 -1 10 -9 24 -15 31 -13 6 2 -5 16 -25 31 -20 16 -36 35 -36 43 0 20
13 18 44 -7 34 -27 42 -20 22 20 -20 38 -21 63 -1 37 8 -10 12 -23 9 -27 -3
-5 -3 -9 0 -9 9 0 42 71 56 117 7 24 17 43 22 43 11 0 10 -16 -2 -38 -27 -48
-58 -132 -49 -137 5 -4 9 -11 9 -16 0 -6 -4 -8 -9 -4 -5 3 -12 1 -16 -4 -3 -6
3 -8 15 -6 12 2 20 -1 20 -10 0 -16 -17 -29 -22 -18 -5 14 -69 55 -75 49 -10
-9 60 -61 84 -62 13 -1 20 3 16 9 -4 6 3 7 18 3 61 -19 69 -19 69 0 0 11 -5
26 -10 34 -9 13 -11 13 -20 0 -5 -8 -10 -10 -10 -5 0 6 5 17 11 25 8 12 12 12
16 2 11 -29 53 -69 70 -67 10 1 32 9 50 18 36 19 69 22 78 7 4 -6 -6 -10 -22
-10 -15 0 -35 -5 -43 -10 -11 -7 -5 -10 23 -10 24 0 51 8 68 21 31 22 41 15
12 -7 -16 -12 -15 -13 13 -14 27 0 32 5 52 53 18 40 25 49 32 37 14 -22 12
-30 -5 -24 -10 4 -15 0 -15 -14 0 -12 -4 -24 -10 -27 -14 -9 -12 -25 3 -25 8
0 19 10 26 23 l12 22 -5 -23 c-4 -21 -2 -22 85 -22 l89 0 0 54 c0 50 2 54 20
51 12 -2 18 0 15 6 -4 5 -11 7 -16 4 -5 -4 -9 8 -9 25 0 43 20 34 36 -16 10
-35 11 -31 7 51 -2 50 -6 105 -8 122 -2 18 1 35 6 38 5 4 9 16 9 28 0 18 -2
19 -10 7 -8 -12 -10 -11 -10 8 0 14 6 22 16 22 15 0 16 -12 12 -101 -3 -61 -2
-95 4 -86 8 15 48 216 48 243 0 9 -15 7 -51 -7 -29 -10 -56 -16 -60 -13 -5 3
-9 1 -9 -5 0 -9 -40 -27 -49 -22 -2 2 -7 -2 -10 -7 -8 -13 -67 -42 -85 -42 -8
0 -18 5 -22 12 -4 6 -3 8 3 5 15 -9 75 17 66 28 -5 4 -3 5 3 2 14 -8 67 17 57
26 -3 4 0 7 8 7 16 0 126 43 136 54 3 3 -3 6 -15 6 -12 0 -22 4 -22 8 0 10
-14 9 -77 -2 -24 -4 -43 -11 -43 -14 0 -6 -84 -15 -120 -13 -8 1 -35 3 -60 4
-49 4 -80 -6 -80 -27 0 -7 -8 -24 -19 -37 -18 -24 -21 -30 -21 -49 0 -5 -5
-10 -10 -10 -10 0 14 69 28 80 9 6 15 28 15 58 1 12 7 22 15 22 7 0 11 -4 7
-9 -3 -5 0 -13 6 -17 7 -4 9 -3 6 2 -5 9 184 8 211 -1 6 -2 12 0 12 4 0 5 31
15 68 21 116 21 132 -2 113 -156 -14 -118 -14 -131 3 -137 10 -4 12 4 8 40 -4
36 -2 44 8 38 8 -5 11 -4 7 3 -12 18 3 39 26 37 12 -1 14 0 5 2 -34 8 -20 83
16 83 19 0 21 -5 21 -65 0 -36 -3 -65 -7 -65 -4 0 -5 -7 -2 -15 4 -8 2 -15 -3
-15 -5 0 -9 -30 -7 -66 3 -73 14 -102 12 -32 -1 76 57 156 106 144 19 -5 28
-17 38 -49 6 -23 17 -45 24 -49 9 -6 8 -21 -5 -65 -21 -70 -38 -98 -67 -114
-13 -6 -25 -18 -28 -25 -4 -11 12 -14 79 -14 l85 0 0 28 c1 15 8 54 16 87 9
33 16 68 16 77 -1 21 49 40 69 26 11 -8 11 -9 -3 -5 -9 3 -24 0 -34 -8 -18
-13 -18 -15 4 -67 12 -29 22 -72 22 -96 l0 -42 48 1 c27 1 55 9 65 18 17 14
20 14 32 -2 7 -10 25 -17 43 -17 36 0 28 -21 97 258 24 96 46 176 48 178 3 3
20 -1 39 -9 l35 -15 -18 -71 c-10 -38 -23 -79 -28 -89 -6 -11 -7 -23 -3 -27 4
-5 0 -4 -8 0 -13 8 -13 7 0 -10 16 -20 17 -20 -38 -4 -8 3 -24 -31 -47 -101
-19 -58 -35 -105 -35 -106 0 0 73 -1 163 -2 156 0 160 0 122 15 -22 8 -45 15
-51 16 -8 0 -8 12 1 41 27 93 28 96 2 96 -56 0 -96 66 -66 110 7 11 8 5 3 -22
-5 -29 -2 -40 16 -58 32 -32 62 -23 76 25 26 92 27 105 6 105 -11 0 -31 9 -45
20 l-26 21 -7 -36 c-3 -20 -9 -34 -11 -31 -3 2 1 29 8 60 14 65 33 76 79 49
42 -24 45 -48 21 -135 -25 -90 -26 -98 -3 -98 9 0 23 -9 30 -20 7 -12 17 -18
21 -15 5 3 11 -1 14 -7 3 -9 7 -7 12 5 10 25 -12 48 -25 27 -6 -9 -10 -10 -10
-3 0 27 24 23 57 -11 29 -29 34 -38 24 -50 -9 -11 -9 -16 0 -21 7 -5 9 -23 6
-48 -4 -27 -2 -36 4 -26 7 12 9 12 9 0 0 -11 4 -10 14 4 12 17 14 17 37 2 32
-23 86 -22 92 1 4 16 5 16 6 0 1 -16 14 -18 120 -18 108 0 119 2 115 18 -3 9
4 30 15 46 19 28 19 29 -5 79 l-23 51 26 36 c15 19 28 37 29 39 6 7 94 -30 94
-40 0 -5 -11 -2 -26 7 -14 10 -28 13 -33 8 -4 -5 -20 -26 -35 -47 -27 -37 -27
-39 -12 -71 14 -30 14 -38 1 -76 -19 -53 -19 -50 10 -50 19 0 25 5 25 23 0 40
18 48 61 26 52 -26 56 -25 69 19 7 20 16 41 20 45 11 12 50 -56 50 -87 0 -19
5 -26 20 -26 15 0 20 7 20 24 0 14 4 28 10 31 6 4 7 -1 3 -12 -7 -17 -6 -17
17 0 43 30 74 39 118 33 36 -5 42 -3 42 13 0 11 -15 28 -35 40 -23 13 -35 28
-35 42 0 15 4 19 16 15 9 -3 18 -6 20 -6 3 0 3 -4 0 -8 -2 -4 4 -9 15 -9 17
-2 19 5 19 63 0 35 -6 73 -12 84 -9 15 -10 23 -2 28 7 5 11 85 12 236 2 227 2
229 -18 211 -11 -10 -22 -25 -25 -34 -2 -9 -15 -22 -27 -30 l-23 -14 23 25
c23 25 23 29 0 91 -10 26 -48 40 -48 17 0 -5 4 -10 9 -10 5 0 11 -9 14 -21 4
-13 10 -18 17 -14 9 5 10 1 5 -15 -5 -15 -4 -20 4 -16 18 12 12 -10 -8 -28
-12 -11 -18 -28 -16 -44 1 -14 1 -32 -2 -39 -14 -36 -62 59 -55 108 5 33 4 34
-15 16 -20 -17 -20 -17 -27 24 -5 28 -12 43 -25 46 -26 7 -47 58 -32 77 6 7
22 11 35 9 16 -3 34 5 58 26 64 56 79 35 22 -29 -32 -36 -36 -44 -30 -77 l7
-38 -15 28 c-12 22 -13 34 -5 49 13 23 2 39 -12 18 -8 -14 -3 -84 8 -102 9
-16 23 -7 29 16 3 14 15 33 27 43 11 10 17 12 13 6 -5 -9 -1 -13 12 -13 23 0
52 -40 52 -72 0 -17 2 -20 9 -9 5 8 7 20 4 28 -4 9 0 11 13 7 14 -4 16 -3 5 4
-11 8 -11 10 0 15 10 4 9 6 -3 6 -9 1 -19 -5 -22 -11 -4 -7 -4 -3 -2 10 2 12
1 20 -4 17 -4 -3 -13 1 -19 9 -9 10 -6 17 15 31 24 16 26 16 40 -2 12 -16 13
-14 14 25 0 39 -3 44 -37 60 -21 9 -41 21 -44 25 -11 15 -59 36 -59 26 0 -6
-4 -7 -10 -4 -5 3 -10 12 -10 18 0 8 25 13 78 14 l77 1 -39 -17 -39 -17 37
-22 c20 -12 39 -22 42 -22 7 0 4 74 -4 87 -4 6 -25 24 -46 38 -30 20 -45 25
-68 19 -17 -3 -28 -2 -25 2 3 5 -11 9 -31 9 -30 0 -39 5 -55 33 -22 37 -16 52
13 34 34 -21 32 -14 -12 42 -114 143 -239 306 -298 386 -36 49 -99 124 -140
167 -203 212 -389 453 -459 592 -29 58 -65 123 -80 145 -54 79 -181 319 -214
404 -58 149 -127 339 -127 351 0 9 5 9 21 0 59 -31 250 -79 341 -86 102 -7
159 3 348 59 128 38 226 85 262 125 20 22 36 79 20 69 -6 -4 -16 2 -21 13 -8
14 -8 21 2 24 6 3 3 6 -8 6 -17 1 -17 3 -5 11 10 6 11 10 3 10 -7 0 -13 6 -13
14 0 20 -17 29 -26 15 -5 -8 -3 -9 6 -4 9 5 11 4 6 -4 -6 -8 -12 -9 -20 -2 -7
6 -22 9 -33 7 -11 -2 -26 0 -34 6 -11 7 -9 8 6 3 15 -4 17 -3 9 5 -19 19 -70
22 -87 5 -9 -8 -20 -15 -26 -15 -6 0 -11 -4 -11 -9 0 -5 -8 -8 -17 -7 -11 0
-18 -6 -17 -16 1 -11 -4 -14 -13 -11 -8 3 -19 0 -23 -7 -9 -14 -140 -24 -140
-11 0 5 -15 6 -32 4 -18 -3 -52 -6 -75 -6 -23 0 -40 -3 -38 -7 2 -3 -18 -5
-45 -4 -27 1 -47 -3 -44 -7 3 -5 0 -9 -7 -9 -6 0 -17 -8 -24 -17 -12 -16 -16
-16 -68 0 -30 9 -89 22 -131 27 -43 5 -82 12 -87 15 -5 4 -9 2 -9 -4 0 -7 -8
-7 -25 -1 -14 5 -25 6 -25 3 0 -4 -5 -2 -11 4 -8 8 -20 8 -35 3 -14 -6 -26 -6
-29 0 -3 5 -13 6 -22 3 -12 -5 -14 -3 -8 8 7 11 6 12 -6 2 -12 -10 -21 -9 -41
1 -15 8 -29 12 -32 8 -3 -3 -6 3 -6 14 0 12 -3 15 -8 7 -9 -14 -44 12 -55 40
-4 10 -11 16 -16 13 -5 -3 -11 13 -15 35 -6 39 -37 81 -67 91 -21 8 -6 18 34
25 24 4 49 0 73 -12 41 -19 106 -17 272 9 94 15 94 15 158 75 43 41 75 62 99
67 19 3 33 10 30 14 -2 4 -35 17 -72 29 -37 13 -132 54 -209 92 -127 63 -153
72 -258 89 -131 22 -156 23 -206 6z m-13 -1552 c-3 -4 16 -17 43 -31 41 -20
51 -31 64 -70 18 -54 20 -95 6 -109 -6 -6 -12 -20 -15 -32 -3 -19 -1 -21 14
-12 10 5 21 17 25 26 10 26 6 97 -8 137 -8 20 -12 37 -10 37 12 0 35 -68 39
-112 2 -29 7 -76 11 -104 4 -38 2 -53 -9 -62 -12 -10 -16 -9 -21 4 -4 9 -12
14 -22 10 -8 -3 -12 -2 -9 3 3 5 1 12 -5 16 -5 3 -10 2 -10 -4 0 -6 -6 -8 -13
-5 -10 4 -14 -4 -13 -28 1 -26 6 -34 24 -36 16 -3 22 2 22 17 0 11 4 22 8 25
4 3 8 -13 8 -35 -1 -44 -20 -63 -47 -49 -47 26 -50 162 -3 205 33 30 31 63 -3
76 -21 8 -24 12 -13 19 8 5 18 6 24 3 5 -4 6 -1 2 6 -15 24 -50 30 -63 11 -7
-10 -21 -17 -30 -15 -10 2 -20 4 -22 4 -3 1 0 6 7 13 16 16 15 51 0 66 -10 10
-10 15 2 22 17 11 26 13 17 4z m-1071 -331 c7 -27 -3 -90 -15 -98 -5 -3 -7 5
-4 17 4 20 3 20 -15 -5 -15 -23 -21 -25 -25 -13 -4 9 -14 16 -24 16 -10 0 -27
12 -37 27 -11 14 -13 23 -6 18 9 -6 11 -4 5 4 -4 7 -16 10 -27 8 -18 -5 -18
-4 -4 18 11 17 13 26 4 31 -6 4 -8 3 -4 -4 9 -15 -17 -21 -31 -6 -10 9 -10 20
-3 41 l10 28 -22 -27 c-19 -22 -26 -25 -39 -15 -12 9 -14 16 -6 29 8 11 7 23
-1 40 -11 22 -11 21 -6 -7 4 -25 3 -27 -6 -12 -6 9 -16 15 -21 12 -5 -4 -7
-10 -5 -14 3 -4 -5 -8 -17 -8 -15 -2 -18 0 -8 6 17 11 4 54 -14 47 -8 -3 -11
2 -8 14 3 10 -1 21 -8 25 -8 5 -10 4 -5 -3 4 -7 1 -12 -8 -12 -12 0 -12 8 6
46 13 31 18 58 15 80 -5 31 4 24 159 -114 94 -83 167 -156 170 -169z m974 158
c0 -6 12 -6 31 1 16 6 31 9 33 7 18 -25 46 -79 40 -78 -41 7 -50 -1 -53 -48
-1 -26 -4 -49 -6 -52 -3 -2 3 -10 13 -17 16 -12 16 -14 -1 -31 -14 -15 -19
-15 -26 -4 -7 11 -9 11 -14 0 -3 -8 -6 -1 -6 14 -1 24 -3 26 -14 15 -8 -7 -16
-20 -20 -28 -3 -9 -6 -4 -6 12 -1 16 -11 35 -28 48 -16 12 -21 19 -12 17 11
-4 15 1 14 16 -2 12 -7 21 -13 20 -13 -3 12 59 36 93 18 24 32 31 32 15z
m-1387 -53 c-12 -15 9 -62 22 -50 4 4 5 -1 2 -10 -7 -19 8 -25 18 -8 3 6 11
10 17 10 6 0 4 -8 -5 -18 -20 -21 -22 -32 -6 -32 5 0 7 5 3 12 -4 7 -3 8 4 4
7 -4 12 -14 12 -22 0 -12 7 -14 30 -9 32 7 42 -8 15 -22 -12 -7 -11 -11 8 -22
20 -13 21 -13 8 2 -9 11 -10 17 -2 17 6 0 11 -5 11 -11 0 -5 6 -7 13 -4 6 4 1
-3 -12 -14 -26 -23 -12 -28 33 -11 29 11 37 -4 9 -15 -16 -6 -15 -8 5 -16 12
-4 28 -6 36 -3 21 8 28 -12 9 -27 -9 -8 -18 -13 -20 -11 -13 9 -21 -1 -9 -13
17 -17 49 -19 75 -6 13 7 18 6 18 -4 0 -7 -7 -11 -15 -7 -11 4 -13 1 -7 -8 6
-10 0 -12 -29 -7 -36 6 -95 48 -225 159 -24 21 -46 36 -50 35 -3 -2 -23 16
-45 40 -37 41 -38 43 -15 43 13 0 40 8 59 19 44 23 44 24 33 9z m1347 -157 c0
-15 5 -32 10 -39 7 -9 7 -9 -2 -2 -7 6 -20 10 -29 10 -10 0 -20 6 -23 13 -3 6
-3 -6 0 -28 7 -50 11 -53 29 -29 8 11 15 14 15 7 0 -7 9 -13 20 -13 11 0 20
-4 20 -9 0 -5 -10 -6 -22 -3 -22 5 -22 5 -5 -12 9 -10 17 -25 16 -34 0 -12 -3
-9 -10 7 -14 36 -20 20 -8 -24 9 -31 8 -40 -4 -46 -8 -5 -13 -20 -11 -35 l2
-26 -27 26 c-15 14 -30 23 -34 19 -4 -3 -7 5 -7 19 0 26 -26 46 -33 25 -2 -6
-6 -3 -10 7 -4 10 -3 15 3 11 6 -3 10 -1 10 5 0 6 5 8 13 4 9 -6 9 -4 -1 8
-10 13 -10 19 3 32 9 9 12 16 6 16 -5 0 -17 -10 -25 -22 -9 -12 -16 -18 -16
-13 0 5 14 24 32 42 25 26 28 33 14 33 -10 0 -14 -4 -10 -12 4 -7 3 -8 -4 -4
-19 12 -14 26 11 27 16 1 18 2 5 6 -20 5 -22 12 -8 33 8 12 10 12 11 -5 0 -11
3 -14 6 -7 2 6 11 12 19 12 8 0 14 9 14 20 0 13 5 18 15 14 8 -4 15 -18 15
-33z m1220 -499 c21 -17 21 -17 2 -40 -11 -12 -31 -22 -46 -22 -29 0 -33 -11
-11 -30 23 -19 18 -30 -12 -30 -16 0 -37 -7 -47 -15 -11 -8 -32 -15 -48 -15
-16 0 -28 -5 -28 -12 0 -7 -3 -23 -6 -34 -4 -16 0 -23 18 -28 29 -9 18 -13
-49 -19 -55 -4 -72 6 -28 17 15 4 25 14 25 24 0 15 2 15 10 2 5 -8 10 -12 10
-8 0 3 3 14 7 24 4 12 3 15 -5 10 -7 -4 -12 -2 -12 6 0 7 -9 19 -20 26 -15 9
-20 23 -20 53 0 28 -4 38 -12 33 -7 -4 -8 -3 -4 4 5 9 13 9 27 2 13 -8 25 -7
40 0 28 16 33 7 9 -15 -29 -26 -25 -42 14 -49 55 -11 105 20 110 68 3 26 31
66 46 66 4 0 18 -8 30 -18z m96 -196 c3 -8 -2 -28 -10 -45 -21 -40 -20 -45 6
-27 23 17 58 22 58 9 -1 -5 -19 -20 -40 -35 -38 -27 -40 -30 -40 -83 0 -42 -4
-55 -15 -55 -11 0 -13 8 -8 33 8 47 -9 25 -43 -54 -39 -87 -56 -111 -72 -100
-17 10 9 100 57 202 17 36 31 69 31 72 0 11 42 78 46 74 3 -2 -7 -24 -21 -48
-26 -46 -31 -69 -16 -69 14 0 52 100 46 121 -7 22 13 27 21 5z m-129 -60 c8
-7 -47 -168 -66 -194 -24 -34 -27 -47 -8 -36 6 5 0 -8 -15 -27 -46 -57 -95
-133 -102 -157 -6 -17 1 -36 25 -73 29 -46 31 -53 21 -87 -6 -20 -13 -46 -16
-57 -3 -18 -4 -18 -5 2 0 12 -9 26 -18 32 -14 8 -18 24 -19 78 -1 87 -1 88
-21 72 -15 -13 -15 -12 -1 16 9 17 19 46 23 65 12 62 39 145 49 152 6 4 19 2
30 -4 16 -9 23 -6 39 13 l19 23 -28 8 c-19 5 -31 3 -36 -5 -5 -8 -8 -7 -8 4 0
9 18 56 40 104 39 83 42 87 68 80 15 -4 28 -8 29 -9z m-364 -48 c-37 -12 -39
-24 -18 -84 11 -34 12 -53 3 -102 -6 -34 -15 -59 -19 -57 -4 3 -5 -4 -2 -15 6
-23 8 -24 34 -9 13 7 18 16 14 29 -3 10 1 33 10 50 12 23 22 30 43 29 21 -1
22 -2 7 -6 -32 -8 -45 -24 -45 -55 0 -28 2 -30 28 -23 37 9 41 14 44 58 1 28
6 37 20 37 20 0 23 -24 9 -63 -7 -17 -23 -28 -57 -37 -26 -8 -56 -22 -66 -32
-10 -10 -22 -18 -27 -18 -5 0 -11 -7 -14 -15 -5 -11 -1 -12 19 -5 35 14 37 13
30 -15 -7 -26 -6 -26 19 -9 14 9 28 15 30 12 3 -3 -19 -17 -48 -31 -52 -27
-104 -36 -92 -17 12 19 -23 21 -85 5 -34 -9 -64 -14 -67 -11 -2 2 21 10 53 17
60 14 54 26 -16 30 l-35 2 35 8 c33 7 32 7 -12 6 -27 -1 -48 2 -48 7 0 5 41 6
93 2 86 -6 95 -5 112 14 15 17 16 20 2 20 -8 0 -24 3 -34 6 -15 5 -15 4 -3 -5
13 -9 13 -11 -1 -11 -14 0 -18 14 -24 69 -6 58 -3 76 16 122 13 30 27 57 31
60 5 3 6 13 3 22 -7 16 14 24 65 25 22 0 21 -1 -7 -10z m637 -115 c91 -48 102
-62 77 -96 -11 -16 -19 -14 -105 25 -51 24 -95 51 -98 60 -6 19 12 58 26 58 6
0 51 -21 100 -47z m-1168 -64 c-2 -23 1 -25 27 -21 l30 4 -20 -40 c-16 -33
-18 -44 -8 -65 6 -14 24 -30 40 -36 31 -11 44 -31 52 -82 l5 -37 -31 16 c-39
19 -56 40 -57 69 0 35 -11 53 -31 53 -24 0 -50 -40 -44 -68 2 -12 0 -24 -6
-27 -5 -4 -9 1 -9 9 0 9 -5 16 -10 16 -16 0 -34 -46 -26 -67 7 -17 9 -16 27 6
25 31 33 23 10 -8 -23 -30 -51 -22 -51 14 0 29 -14 33 -29 8 -6 -10 -11 -13
-11 -7 0 14 28 39 36 31 9 -9 58 52 90 113 16 30 35 62 43 70 17 18 -3 27 -24
10 -11 -9 -17 -5 -29 19 -22 41 -20 53 7 49 17 -2 21 -9 19 -29z m1510 -11
c26 7 36 3 65 -22 l34 -30 -26 -14 c-23 -11 -25 -16 -13 -30 7 -9 0 -7 -16 6
-16 12 -31 22 -35 22 -3 0 -7 -32 -8 -70 -2 -59 -7 -80 -33 -125 -30 -53 -32
-75 -7 -75 25 0 72 -63 74 -99 4 -40 -25 -151 -39 -151 -4 0 -8 4 -8 9 0 15
-72 79 -107 96 -18 9 -33 20 -33 24 0 29 33 106 54 128 l25 25 -30 26 c-30 24
-30 27 -24 86 8 75 25 102 74 122 46 18 48 38 4 65 -18 11 -33 23 -33 26 0 3
11 -2 25 -11 18 -12 33 -14 57 -8z m-447 -42 c37 -25 55 -58 62 -117 3 -30 13
-59 21 -65 13 -10 13 -15 -5 -40 -12 -16 -30 -37 -41 -47 -22 -20 -83 -27
-118 -14 -15 5 -22 4 -21 -5 1 -7 -2 -32 -7 -55 -7 -40 -6 -45 23 -69 45 -38
38 -49 -11 -19 -24 14 -64 35 -90 47 -58 25 -62 38 -9 31 38 -5 38 -5 46 33 4
22 12 42 18 46 6 4 -2 17 -23 34 -42 36 -60 80 -60 149 0 48 2 56 18 53 9 -2
25 7 36 20 10 13 28 28 40 33 29 12 91 4 121 -15z m620 -53 c30 -28 37 -50 22
-65 -7 -7 -28 -43 -47 -80 l-35 -68 -40 40 -39 40 18 32 c46 81 79 127 88 125
6 -1 21 -12 33 -24z m-334 -79 c8 -9 -3 -6 -25 7 l-39 23 8 -96 c7 -93 6 -97
-26 -167 -18 -39 -35 -71 -39 -71 -3 0 -21 12 -39 28 l-32 27 10 82 c11 86 26
120 73 165 15 15 28 34 28 42 0 13 6 12 34 -5 19 -11 40 -27 47 -35z m-720
-49 c-2 -33 -1 -37 11 -27 12 10 14 6 10 -21 -5 -30 -6 -30 -15 -10 -8 18 -15
20 -46 16 -20 -3 -58 -14 -84 -24 -68 -27 -76 -25 -68 14 5 27 15 37 71 65 39
19 77 31 95 30 29 -3 30 -5 26 -43z m-443 -87 c-34 -12 -35 -22 -3 -90 24 -51
33 -94 18 -85 -5 3 -9 -14 -10 -36 -1 -23 -6 -43 -12 -45 -5 -2 -7 -10 -4 -19
4 -10 2 -14 -5 -9 -6 3 -14 1 -18 -5 -4 -7 -3 -9 4 -5 5 3 12 1 14 -5 3 -9 9
-9 26 0 30 16 28 5 -5 -25 -22 -20 -24 -24 -8 -19 11 4 36 8 55 10 32 2 33 2
5 -4 -23 -5 -31 -12 -33 -32 -4 -30 -24 -39 -87 -38 -34 1 -36 2 -13 8 17 4
25 10 20 18 -5 8 -21 8 -60 1 -53 -11 -66 -23 -34 -31 10 -3 6 -5 -10 -6 -42
-2 -35 26 10 38 20 6 44 11 52 11 12 1 11 3 -3 14 -14 11 -15 15 -5 20 7 3 1
4 -14 1 -15 -3 -30 0 -33 6 -12 19 2 20 51 5 36 -11 42 -15 24 -16 -25 -2 -24
-2 5 -15 17 -7 34 -10 40 -7 5 3 3 8 -4 10 -9 3 -8 9 5 23 16 18 16 19 -9 19
l-27 0 0 97 c0 53 3 93 7 90 3 -4 12 -2 19 4 8 6 21 9 29 5 9 -3 13 -2 10 4
-3 6 -17 10 -31 10 -24 0 -25 3 -22 43 3 44 23 65 63 65 15 0 13 -2 -7 -10z
m330 -23 c7 -14 12 -33 12 -42 0 -9 7 -21 16 -27 14 -11 13 -19 -8 -81 -19
-58 -29 -74 -61 -94 -37 -24 -38 -27 -35 -75 3 -47 5 -51 31 -54 43 -5 31 -22
-15 -22 -24 0 -60 -3 -80 -6 -45 -8 -53 11 -9 21 27 6 29 10 33 56 3 43 0 52
-19 65 -20 12 -23 23 -23 79 0 36 4 65 10 65 5 0 21 22 34 49 24 46 68 90 92
91 6 0 16 -11 22 -25z m1182 -91 c0 -37 -19 -96 -34 -106 -7 -5 -7 -8 2 -8 7
0 10 -5 7 -10 -4 -6 -11 -8 -16 -5 -5 4 -9 0 -9 -9 0 -14 -67 -196 -75 -205
-3 -2 -14 4 -24 13 -20 18 -19 19 15 115 20 53 37 114 39 136 1 22 11 71 21
109 l18 69 28 -34 c18 -21 28 -45 28 -65z m-620 39 c-5 -21 -14 -65 -20 -98
-7 -33 -13 -101 -14 -151 -1 -72 -4 -90 -15 -86 -16 6 -30 -15 -32 -48 -1 -17
-3 -19 -6 -8 -4 14 -8 15 -24 5 -28 -18 -53 2 -57 45 -3 32 1 39 39 64 46 31
60 62 100 219 20 76 26 95 33 95 2 0 0 -17 -4 -37z m-186 -84 c30 -26 34 -74
5 -58 -30 15 -35 9 -10 -11 12 -11 27 -17 32 -14 12 7 11 -7 -2 -64 -18 -78
-16 -77 -54 -43 -20 17 -56 36 -80 42 -50 13 -50 13 -32 83 14 54 50 90 61 61
4 -13 1 -15 -14 -10 -12 4 -20 2 -20 -4 0 -6 14 -10 30 -9 39 3 39 36 0 51 -8
3 1 4 21 2 20 -2 48 -13 63 -26z m502 -223 c16 5 17 4 4 -6 -12 -9 -10 -11 12
-6 20 5 34 0 55 -18 15 -13 25 -27 21 -31 -4 -4 -17 4 -30 17 -21 22 -58 27
-58 8 0 -5 20 -21 45 -37 46 -29 52 -41 35 -73 -9 -16 -5 -22 19 -35 16 -8 33
-20 37 -27 4 -6 -10 -1 -32 12 -51 31 -117 81 -127 97 -4 7 -68 58 -142 113
-119 88 -159 130 -125 130 12 0 90 -50 90 -57 0 -3 -11 2 -25 11 -28 18 -35
20 -35 8 0 -15 204 -165 208 -154 2 6 9 9 17 6 30 -12 22 17 -17 55 -46 47
-62 49 -23 3 48 -57 25 -45 -97 51 -28 22 -4 11 35 -15 29 -21 38 -10 10 13
-9 8 -38 40 -65 72 -85 103 -50 85 61 -31 83 -86 113 -111 127 -106z m501 145
c21 -27 14 -36 -10 -13 -13 12 -26 22 -28 22 -3 0 -5 -35 -3 -77 1 -43 -1 -70
-5 -59 -6 17 -9 16 -25 -9 -24 -36 -23 -106 2 -154 29 -55 33 -84 17 -115 -8
-16 -15 -37 -15 -47 0 -11 -4 -19 -10 -19 -5 0 -10 9 -10 20 0 12 -7 32 -16
45 -12 18 -14 36 -9 67 14 87 11 129 -10 144 -29 21 -47 14 -72 -31 -24 -43
-49 -57 -75 -44 -23 12 -30 41 -19 73 10 24 15 26 75 26 83 0 91 9 83 100 -6
74 7 89 19 22 7 -41 23 -77 24 -53 0 7 6 11 15 7 12 -4 15 5 15 53 0 32 3 60
6 64 9 8 37 -4 51 -22z m-784 -87 c33 -18 148 -93 157 -103 3 -4 31 -28 62
-54 79 -67 92 -89 78 -132 l-11 -34 -82 66 c-45 37 -84 73 -86 81 -2 10 -5 11
-10 3 -8 -12 -133 86 -151 119 -9 17 -5 70 7 70 2 0 18 -7 36 -16z m-784 -118
c-4 -42 18 -66 63 -67 18 -1 47 -5 63 -9 24 -6 17 -8 -33 -9 -46 -1 -64 -5
-68 -16 -4 -8 -10 -15 -16 -15 -5 0 -6 5 -3 10 3 6 1 10 -4 10 -6 0 -11 7 -11
15 0 8 5 15 12 15 8 0 9 3 2 10 -7 7 -43 6 -112 -5 -56 -8 -106 -15 -112 -15
-12 0 -3 48 13 68 15 19 96 41 155 41 l54 1 -3 -34z m896 -180 l100 -73 -2
-47 c-2 -27 1 -45 6 -41 6 3 14 -2 19 -11 9 -15 10 -15 17 5 5 15 1 29 -12 43
l-18 21 28 -18 c28 -18 34 -39 18 -64 -8 -13 -15 -12 -48 4 -21 10 -53 26 -71
34 -18 9 -41 25 -50 36 -14 16 -14 17 -1 7 14 -10 18 -6 27 27 7 21 12 41 12
44 0 3 -22 21 -50 41 l-50 36 -6 -28 c-3 -15 -8 -34 -10 -42 -3 -8 8 -26 23
-40 44 -38 5 -11 -55 39 -48 40 -52 47 -47 75 14 69 13 69 43 46 15 -11 72
-53 127 -94z"/>
<path d="M3633 1128 c-26 -13 -53 -65 -53 -105 0 -62 66 -123 134 -123 40 0
76 39 83 88 14 104 -77 182 -164 140z"/>
<path d="M3145 826 c-78 -78 -88 -226 -14 -197 55 20 87 97 72 171 -10 53 -24
59 -58 26z"/>
<path d="M1748 2244 c-36 -16 -47 -35 -53 -96 -2 -19 6 -34 27 -53 30 -27 84
-53 73 -35 -5 8 23 8 45 0 3 -2 8 -2 13 -1 4 0 7 -5 7 -11 0 -9 4 -8 10 2 9
13 10 13 10 0 0 -9 -4 -20 -10 -26 -6 -6 -3 -10 9 -10 12 0 17 6 14 16 -3 8 4
0 16 -17 23 -36 38 -45 21 -13 -8 15 -7 26 3 42 7 13 13 37 12 53 0 17 6 35
15 42 13 10 12 14 -4 32 -19 21 -51 28 -60 13 -2 -4 -27 -7 -56 -6 -41 2 -49
-1 -40 -11 12 -15 -3 -30 -20 -20 -31 19 23 75 76 80 50 5 52 11 7 19 -21 4
-47 9 -58 11 -11 3 -36 -3 -57 -11z"/>
<path d="M2099 778 c-1 -7 -2 -19 -3 -26 0 -7 -7 -16 -14 -21 -7 -4 -12 -12
-11 -17 5 -19 -14 -64 -24 -57 -5 3 -7 1 -4 -5 9 -14 -3 -43 -14 -36 -5 3 -6
-3 -2 -12 4 -12 3 -15 -5 -10 -8 5 -10 1 -5 -10 5 -13 3 -15 -8 -9 -8 5 -7 0
4 -12 14 -16 16 -26 8 -47 -6 -14 -7 -26 -4 -26 4 0 2 -5 -5 -12 -7 -7 -12
-21 -12 -33 1 -20 1 -20 16 0 8 11 13 28 10 38 -2 9 1 17 8 17 24 0 44 35 62
108 10 39 22 72 25 72 4 0 3 -16 -2 -36 -13 -46 -5 -67 11 -32 7 15 17 25 21
22 5 -3 9 -2 9 3 1 4 7 34 14 66 8 31 10 55 5 51 -5 -3 -9 3 -10 13 0 13 -4 9
-13 -11 -10 -22 -14 -25 -19 -12 -4 9 -13 16 -21 16 -10 0 -13 6 -10 15 4 8 3
15 0 15 -3 0 -7 -6 -7 -12z"/>
<path d="M2803 278 c-11 -13 -26 -33 -32 -45 -22 -44 -8 -145 23 -156 44 -17
87 47 87 128 0 90 -34 121 -78 73z"/>
<path d="M2641 158 c11 -56 10 -94 -1 -58 -12 42 -24 -3 -14 -53 l9 -42 83 -3
c67 -2 82 0 82 12 0 8 -9 17 -19 21 -23 7 -51 61 -52 102 -1 17 -3 21 -6 10
-2 -9 -9 -14 -15 -11 -7 4 -8 -4 -3 -25 6 -28 4 -31 -19 -31 -23 0 -25 4 -32
60 -4 33 -10 60 -14 60 -4 0 -4 -19 1 -42z"/>
</g>
</svg>
